PathFileType	4	(X/Y/Z)	Kaydara																																																																																																																									
DataRate	CameraRate	NumFrames	NumMarkers	Units	OrigDataRate	OrigDataStartFrame	OrigNumFrames																																																																																																																					
30	30	7	41	mm	30	139	158																																																																																																																					
Frame#	Time	NABA_LFHD			NABA_RFHD			NABA_LBHD			NABA_RBHD			NABA_LFTShould			NABA_RFTShould			NABA_LRRShould			NABA_RRRShould			NABA_T10			NABA_STRN			NABA_TRUN			NABA_LSHO			NABA_LUPA			NABA_LELB			NABA_LFRM			NABA_LWRA			NABA_LWRB			NABA_LFIN			NABA_RSHO			NABA_RUPA			NABA_RELB			NABA_RFRM			NABA_RWRA			NABA_RWRB			NABA_RFIN			NABA_LFWT			NABA_RFWT			NABA_LBWT			NABA_RBWT			NABA_LTHI			NABA_LKNE			NABA_LSHN			NABA_LANK			NABA_LHEE			NABA_LTOE			NABA_RTHI			NABA_RKNE			NABA_RSHN			NABA_RANK			NABA_RHEE			NABA_RTOE		
		X1	Y1	Z1	X2	Y2	Z2	X3	Y3	Z3	X4	Y4	Z4	X5	Y5	Z5	X6	Y6	Z6	X7	Y7	Z7	X8	Y8	Z8	X9	Y9	Z9	X10	Y10	Z10	X11	Y11	Z11	X12	Y12	Z12	X13	Y13	Z13	X14	Y14	Z14	X15	Y15	Z15	X16	Y16	Z16	X17	Y17	Z17	X18	Y18	Z18	X19	Y19	Z19	X20	Y20	Z20	X21	Y21	Z21	X22	Y22	Z22	X23	Y23	Z23	X24	Y24	Z24	X25	Y25	Z25	X26	Y26	Z26	X27	Y27	Z27	X28	Y28	Z28	X29	Y29	Z29	X30	Y30	Z30	X31	Y31	Z31	X32	Y32	Z32	X33	Y33	Z33	X34	Y34	Z34	X35	Y35	Z35	X36	Y36	Z36	X37	Y37	Z37	X38	Y38	Z38	X39	Y39	Z39	X40	Y40	Z40	X41	Y41	Z41
																																																																																																																												
139	4.61	319.22256	1490.40131	2190.83328	186.74774	1421.96014	2276.85471	262.20074	1543.4967	2091.04218	105.7428	1458.19489	2224.87503	258.02731	1320.51773	2087.84637	125.58393	1299.40964	2121.28616	216.20867	1350.48019	1980.27313	104.00721	1351.61545	2012.79953	159.76903	1177.01195	1945.13504	209.94991	1265.933	2155.29999	228.01271	1183.34213	2220.0322	327.04109	1341.86127	1994.71161	359.84894	1129.73732	1904.00574	395.20832	1057.99088	1894.59137	374.35974	994.41368	1862.20795	416.69487	826.47003	1876.61407	457.0974	857.38968	1824.96048	497.66705	810.14374	1847.22244	37.45221	1351.09772	2080.63278	-47.28059	1186.45813	1994.31931	-122.75998	1088.21007	2022.45514	-163.81226	1008.2106	2007.23099	-159.68229	853.12599	2041.38824	-232.46572	874.98375	2050.33524	-223.93381	830.83755	2081.41388	326.8972	908.58231	2181.40167	63.02596	891.94473	2175.56686	279.20191	945.32272	2010.74234	107.51148	967.42165	2002.27997	333.54595	597.81792	2081.51825	322.54189	456.95518	2157.76764	263.59638	272.94662	2215.88425	286.50009	112.03921	2182.4881	228.35798	57.06872	2131.5007	236.51829	39.17682	2316.49384	73.28799	607.0454	2022.35916	55.33932	433.30708	2125.80734	78.07424	300.56072	1995.34302	97.24424	225.91864	1806.71631	154.70993	246.95721	1743.79883	115.4484	72.43769	1802.91412
140	4.643	300.4788	1506.90292	2245.53238	150.90384	1453.58749	2313.07144	264.67529	1549.98444	2131.94412	82.54517	1486.79001	2244.09515	259.30359	1318.32001	2136.62338	115.07051	1299.98764	2163.73642	228.6112	1346.3237	2025.56854	100.89691	1341.44806	2049.86694	172.77105	1169.89319	1993.72513	204.59707	1275.64949	2205.26642	218.96084	1192.5309	2270.40985	339.24702	1333.18848	2047.88147	369.40025	1114.72008	1968.1868	402.44884	1041.22337	1964.56512	381.6132	976.32896	1934.66064	416.89571	808.43925	1961.90414	461.75713	834.46999	1911.3652	497.9018	784.87267	1940.466	27.34861	1334.76761	2108.80508	-32.98537	1153.54408	2020.8075	-109.94681	1059.78882	2046.92993	-147.22766	977.54234	2033.42422	-156.46482	830.67078	2093.16299	-229.298	853.013	2079.26163	-230.11305	816.93054	2119.02893	325.69729	909.30664	2225.35461	62.35466	902.46384	2218.07831	279.7484	950.73563	2054.61487	111.87313	977.03712	2046.07605	331.57253	602.60361	2109.32465	319.17816	457.78191	2177.42218	259.57895	272.52827	2226.70593	284.59063	111.77953	2186.21643	227.43799	59.24619	2133.07831	235.10727	38.00208	2317.3587	68.45825	609.61201	2091.39801	50.67569	446.23383	2214.85916	74.36044	307.9982	2092.47742	95.03729	229.11703	1906.0141	156.27361	245.38988	1841.82266	98.72059	82.92727	1912.76428
141	4.677	279.01167	1519.0744	2294.72122	117.85032	1477.14218	2340.58517	264.74201	1551.21201	2173.15659	63.38271	1504.98169	2258.2402	263.21114	1318.94211	2191.31592	111.03897	1296.84097	2205.05844	245.74926	1339.12033	2069.64508	101.88538	1330.61356	2084.98077	187.4674	1162.1843	2039.39804	199.38402	1275.88692	2252.06863	210.32051	1192.30797	2318.41873	350.02949	1326.0347	2106.25092	382.6107	1100.32242	2037.12463	412.08363	1025.58594	2039.99954	392.1701	958.8736	2012.30804	419.69521	793.23372	2055.50598	469.50642	813.52791	2006.93054	498.96351	759.06815	2040.72601	24.49816	1317.36008	2135.52429	-8.62314	1119.12552	2055.83588	-88.40669	1029.29039	2074.40964	-122.6766	944.11118	2065.21408	-152.09069	811.67969	2149.12338	-215.25129	826.64268	2109.41803	-230.89834	803.31383	2153.11417	327.53841	907.94647	2264.20288	63.41224	906.94801	2262.18109	279.01766	953.61633	2096.26678	109.2332	982.01523	2090.02182	326.8692	605.47619	2140.46265	314.92462	458.22521	2202.00989	255.0708	270.3554	2242.14859	280.07587	112.02386	2193.14621	223.41619	61.87521	2136.81488	233.47586	37.04626	2319.06662	59.77786	610.16102	2160.38132	48.40449	459.97211	2301.12274	71.41978	313.13713	2189.98596	90.04542	220.19798	2010.21057	149.54011	228.29762	1941.34293	95.36517	83.17712	2041.10138
142	4.71	259.12273	1526.70181	2337.56638	92.21919	1489.44717	2364.21844	261.96009	1549.5903	2213.03879	50.07151	1511.23825	2272.9155	260.19489	1311.64032	2242.75269	110.44847	1287.98874	2240.65964	252.67042	1337.66144	2117.79907	108.27108	1324.05884	2118.94867	198.99427	1158.47839	2080.38177	193.3102	1268.12576	2298.44559	201.87201	1182.52419	2364.28268	356.21468	1322.57904	2169.65973	397.18376	1090.73792	2109.4693	422.84344	1014.53598	2119.77783	406.53416	945.58548	2094.33395	424.55215	784.75365	2156.46042	480.54649	799.37759	2112.78717	497.99721	736.43204	2148.8623	25.24355	1303.53943	2167.31598	16.04352	1094.85023	2098.07938	-62.44901	1003.69713	2106.40793	-92.46218	915.38757	2106.66595	-145.31721	800.71365	2204.39575	-195.09857	805.20172	2148.26141	-221.86672	789.95529	2187.01462	328.44421	906.76109	2303.75122	63.6722	906.73691	2305.55573	275.35629	952.43088	2136.54099	101.43734	979.71512	2131.29669	321.54289	607.50507	2172.05719	310.88734	457.35268	2229.0979	250.53898	267.60967	2258.57956	276.65735	112.66515	2200.35202	220.72512	64.22141	2140.28076	232.19151	36.48669	2319.52957	48.06898	609.18518	2227.26288	49.78875	474.34959	2383.25348	70.77421	315.04101	2289.56299	83.08115	199.32978	2122.7951	138.79231	197.44564	2049.61105	92.0545	73.831	2176.39679
143	4.743	244.28513	1531.21933	2375.75043	75.03195	1494.2804	2389.74442	257.30988	1546.44974	2249.90356	40.98607	1510.49454	2294.02512	254.04049	1302.22427	2286.77109	104.95094	1275.92049	2278.50876	255.63408	1337.55096	2167.43073	109.52482	1320.73792	2158.48862	206.05743	1155.59624	2119.91028	186.74557	1255.0499	2341.6098	192.74569	1169.42528	2408.24738	355.53043	1320.20081	2230.24841	413.76934	1085.74715	2188.21991	434.74995	1008.88214	2204.67865	423.96416	937.06947	2180.78842	426.60553	782.1183	2257.89932	491.89217	793.89488	2227.01172	491.33633	724.00536	2265.38742	23.92374	1294.57825	2208.17642	32.61499	1084.11133	2143.03406	-38.50149	985.64072	2149.07349	-67.07793	895.72754	2153.37875	-133.20213	790.77744	2255.23865	-172.84388	786.9101	2191.96655	-205.43896	777.453	2225.24246	323.62171	904.73457	2344.95773	59.82562	906.44585	2345.42694	270.43419	946.97556	2176.35147	97.62277	974.19617	2169.11713	318.8835	608.70113	2206.633	307.95288	456.15692	2255.76294	246.84589	264.95373	2273.65112	274.89496	113.00479	2206.9928	220.69864	66.73298	2143.71658	230.70868	36.3098	2319.59778	38.5341	607.92377	2290.64987	52.12174	487.25994	2457.27112	69.30739	315.5052	2385.89172	75.40466	172.76154	2241.64825	129.39166	157.15617	2167.35901	84.23271	63.21441	2317.35962
144	4.777	233.12819	1531.74622	2411.02188	63.35338	1495.42603	2418.62457	252.95084	1541.48453	2285.5806	34.45937	1507.2731	2320.61584	249.02796	1295.21011	2331.66794	101.60536	1266.0717	2315.06943	257.96116	1330.48721	2209.05457	109.98662	1315.64117	2196.91681	208.61849	1151.04736	2161.18912	179.6805	1245.34218	2382.70035	183.1241	1159.43687	2449.10522	351.75522	1315.27924	2282.3259	424.08215	1080.25131	2264.66797	441.7057	1003.77785	2289.08279	437.78534	929.5977	2269.6434	425.02411	783.78494	2360.7399	495.38715	793.47755	2343.9534	480.94257	723.31566	2384.01672	22.53102	1287.52365	2245.41763	34.78419	1076.37955	2181.18988	-27.92724	973.08601	2192.87048	-51.72762	881.66748	2199.86893	-118.41254	778.19008	2304.08264	-152.72593	769.30779	2239.1687	-188.15687	762.41608	2268.75244	316.14906	900.56664	2393.08319	52.12523	904.01207	2382.87842	265.30001	940.08781	2219.05029	98.58912	966.56342	2205.69916	317.99971	608.09223	2243.20618	304.35978	453.66711	2282.71896	243.57271	261.44608	2287.24045	273.59022	113.20731	2212.52533	219.12916	69.61716	2145.29755	229.78592	36.018	2319.49036	36.48953	606.78474	2347.02972	52.75688	496.87168	2519.30649	63.4119	316.38594	2475.6311	66.33245	147.43221	2363.6441	120.27623	114.47677	2295.66544	69.2064	57.9952	2460.634
145	4.81	226.28498	1529.52835	2445.52277	56.08623	1495.11246	2450.68268	249.44412	1533.4787	2320.33417	29.80762	1502.69196	2351.41403	242.08622	1287.54822	2373.95477	94.61092	1262.23618	2355.95383	254.8077	1323.0098	2252.32742	106.46139	1307.87598	2236.48193	208.07926	1143.90892	2202.18781	172.18895	1238.0452	2422.0813	173.56594	1152.16148	2488.23486	346.87378	1307.00623	2327.77313	426.66649	1073.17848	2332.69287	443.46718	999.47853	2367.18674	443.66711	922.87712	2356.24969	417.81113	787.05399	2458.71674	489.31637	797.8479	2454.42291	470.31933	734.3882	2500.90942	17.50984	1278.36815	2281.27777	27.47163	1065.96275	2217.27264	-27.40126	961.55319	2236.69754	-46.5141	869.37729	2244.13818	-105.71044	763.4597	2350.13275	-140.98289	752.79228	2286.14594	-175.34933	743.80661	2316.26297	309.44519	894.29237	2441.33469	44.73352	897.83066	2420.60822	265.33955	935.29526	2264.42963	99.62484	959.11186	2245.2803	317.88387	605.06794	2280.43625	300.98257	450.12268	2310.13916	240.33949	257.82248	2301.38763	272.30408	113.98303	2218.75565	218.74462	73.32938	2148.18283	228.91249	35.6184	2320.38971	41.16487	602.62199	2393.06061	49.51427	500.12947	2568.43842	54.70541	317.24787	2557.72797	54.76784	126.89547	2488.6731	109.12951	78.28204	2430.65063	53.4504	61.34226	2603.11615
